<svg width="28" height="28" viewBox="0 0 28 28" fill="none" xmlns="http://www.w3.org/2000/svg">
<path d="M25.76 0H2.24C1.00288 0 0 1.00288 0 2.24V25.76C0 26.9971 1.00288 28 2.24 28H25.76C26.9971 28 28 26.9971 28 25.76V2.24C28 1.00288 26.9971 0 25.76 0Z" fill="#1D1D1D"/>
<path d="M20.8598 4.33997H7.13984C5.59345 4.33997 4.33984 5.59357 4.33984 7.13997V20.86C4.33984 22.4064 5.59345 23.66 7.13984 23.66H20.8598C22.4062 23.66 23.6598 22.4064 23.6598 20.86V7.13997C23.6598 5.59357 22.4062 4.33997 20.8598 4.33997Z" fill="#008363"/>
<path fill-rule="evenodd" clip-rule="evenodd" d="M4.33984 4.33997H19.3198V15.96C19.3198 17.8156 17.8155 19.32 15.9598 19.32H4.33984V4.33997Z" fill="#00BA8C"/>
<path d="M11.83 14.7C13.415 14.7 14.7 13.415 14.7 11.83C14.7 10.2449 13.415 8.95996 11.83 8.95996C10.2449 8.95996 8.95996 10.2449 8.95996 11.83C8.95996 13.415 10.2449 14.7 11.83 14.7Z" fill="white"/>
</svg>
